<?xml version="1.0" standalone="no"?>
<!DOCTYPE svg PUBLIC "-//W3C//DTD SVG 20010904//EN"
 "http://www.w3.org/TR/2001/REC-SVG-20010904/DTD/svg10.dtd">
<svg version="1.0" xmlns="http://www.w3.org/2000/svg"
 width="256.000000pt" height="256.000000pt" viewBox="0 0 256.000000 256.000000"
 preserveAspectRatio="xMidYMid meet">

<g transform="translate(0.000000,256.000000) scale(0.100000,-0.100000)"
fill="#000000" stroke="none">
<path d="M514 2376 c-40 -18 -72 -60 -87 -113 -9 -35 -20 -48 -53 -68 -54 -32
-89 -99 -79 -151 7 -42 41 -79 90 -100 19 -8 35 -20 35 -27 0 -6 -21 -24 -46
-39 -55 -34 -90 -100 -80 -153 7 -37 61 -91 101 -101 30 -8 34 -40 5 -49 -62
-20 -117 -108 -106 -169 7 -38 60 -92 101 -102 35 -9 31 -36 -7 -55 -45 -22
-89 -80 -95 -125 -6 -51 27 -102 85 -129 47 -22 56 -49 18 -59 -35 -9 -94 -79
-102 -122 -10 -54 18 -102 78 -134 27 -14 48 -30 48 -37 0 -6 -17 -21 -38 -33
-76 -43 -111 -136 -74 -196 11 -17 40 -41 65 -53 38 -19 46 -28 56 -65 6 -23
20 -55 32 -70 45 -58 17 -56 919 -56 l832 0 29 29 29 29 0 1052 0 1052 -29 29
-29 29 -834 0 c-675 -1 -839 -3 -864 -14z m1708 -33 c17 -15 18 -61 18 -1061
0 -959 -1 -1047 -17 -1064 -15 -17 -52 -18 -760 -18 l-743 0 0 1080 0 1080
742 0 c676 0 743 -1 760 -17z m-1802 -268 c0 -63 -2 -115 -5 -115 -4 0 -19 7
-35 15 -57 30 -75 86 -45 144 14 27 61 70 78 71 4 0 7 -52 7 -115z m0 -319 c0
-110 -1 -114 -20 -109 -11 3 -34 18 -50 33 -34 32 -39 73 -15 120 15 28 60 70
76 70 5 0 9 -51 9 -114z m0 -321 l0 -115 -40 20 c-49 25 -64 51 -57 104 4 30
15 50 41 73 20 18 40 33 46 33 6 0 10 -44 10 -115z m0 -315 c0 -125 -5 -131
-65 -79 -50 44 -49 93 1 149 58 64 64 57 64 -70z m-4 -427 c-6 -6 -47 16 -73
40 -44 40 -22 125 43 168 l29 19 3 -111 c1 -62 1 -114 -2 -116z m0 -320 c-8
-8 -65 27 -80 49 -33 47 -10 124 47 158 l32 20 3 -111 c1 -62 1 -114 -2 -116z"/>
<path d="M1410 2139 c-45 -19 -90 -60 -110 -100 -18 -34 -23 -38 -40 -29 -10
5 -45 10 -77 10 -84 0 -145 -39 -180 -116 -45 -98 -17 -192 75 -254 l52 -34 0
-218 c0 -214 0 -218 -21 -218 -31 0 -57 -18 -75 -51 -20 -39 -11 -82 23 -109
25 -19 40 -20 420 -20 251 0 401 4 414 10 10 6 26 24 34 41 29 54 -13 129 -72
129 l-23 0 0 219 0 219 45 26 c135 80 132 280 -5 354 -39 21 -54 23 -120 19
l-76 -5 -22 39 c-33 57 -88 90 -159 95 -32 2 -69 -1 -83 -7z m148 -41 c26 -12
52 -34 61 -51 9 -16 25 -41 36 -54 18 -21 24 -23 48 -14 136 52 277 -68 238
-202 -15 -50 -52 -91 -103 -118 l-38 -19 0 -230 0 -230 -70 0 -70 0 -2 215
c-2 135 -7 215 -13 215 -6 0 -11 -80 -13 -215 l-2 -215 -70 0 -70 0 0 214 c0
194 -7 255 -24 210 -3 -9 -6 -108 -6 -220 l0 -204 -65 0 -65 0 -2 215 c-2 135
-7 215 -13 215 -6 0 -11 -80 -13 -215 l-2 -215 -70 0 -70 0 0 229 0 230 -50
27 c-67 36 -95 82 -95 154 0 68 28 117 83 148 43 24 112 29 158 12 21 -8 31
-7 45 6 11 10 19 21 19 27 0 21 43 66 82 86 55 27 100 27 156 -1z m318 -956
c26 -17 35 -51 22 -80 l-13 -27 -402 -3 -402 -2 -16 24 c-18 28 -11 71 14 86
19 11 780 13 797 2z"/>
<path d="M1015 805 c-47 -47 -21 -117 47 -130 18 -3 218 -5 445 -3 l411 3 26
24 c34 32 34 74 1 106 l-24 25 -441 0 -441 0 -24 -25z m909 -21 c19 -18 21
-45 4 -62 -17 -17 -879 -17 -896 0 -15 15 -15 51 0 66 9 9 121 12 444 12 380
0 434 -2 448 -16z"/>
<path d="M1011 524 c-28 -35 -27 -75 2 -102 23 -22 25 -22 469 -22 l447 0 20
26 c28 35 26 69 -4 99 l-24 25 -445 0 -445 0 -20 -26z m917 -16 c7 -7 12 -21
12 -33 0 -12 -5 -26 -12 -33 -17 -17 -879 -17 -896 0 -15 15 -15 51 0 66 17
17 879 17 896 0z"/>
</g>
</svg>
