<?xml version="1.0" standalone="no"?>
<!DOCTYPE svg PUBLIC "-//W3C//DTD SVG 20010904//EN"
 "http://www.w3.org/TR/2001/REC-SVG-20010904/DTD/svg10.dtd">
<svg version="1.0" xmlns="http://www.w3.org/2000/svg"
 width="512.000000pt" height="512.000000pt" viewBox="0 0 512.000000 512.000000"
 preserveAspectRatio="xMidYMid meet">

<g transform="translate(0.000000,512.000000) scale(0.100000,-0.100000)"
fill="#000000" stroke="none">
<path d="M626 4949 c-62 -15 -153 -68 -197 -116 -22 -24 -55 -74 -72 -111
l-32 -67 0 -2096 0 -2095 37 -76 c45 -91 103 -147 196 -191 l67 -32 1745 0
1745 0 45 24 c61 32 97 67 128 126 l27 50 3 1258 2 1257 296 0 295 0 24 25
c40 39 32 68 -46 187 l-72 108 72 108 c78 119 86 148 46 187 l-24 25 -296 0
-295 0 0 80 0 80 215 0 c216 0 216 0 240 25 40 39 32 68 -46 187 l-72 108 72
108 c78 119 86 148 46 187 -24 25 -24 25 -240 25 l-215 0 0 199 c0 243 -9 281
-85 356 -92 93 76 85 -1864 84 -988 -1 -1722 -5 -1745 -10z m3471 -169 c63
-38 63 -40 63 -452 l0 -373 -100 100 -99 100 19 55 c91 259 -159 506 -412 410
l-53 -20 -100 100 -100 100 375 0 c354 0 377 -1 407 -20z m-351 -319 c131 -59
115 -250 -24 -292 -114 -34 -227 78 -193 191 16 53 47 88 96 105 53 19 72 18
121 -4z m-1005 -333 c142 -52 247 -142 314 -270 21 -40 45 -78 54 -84 8 -7 42
-15 74 -19 174 -19 337 -128 422 -280 154 -275 51 -625 -228 -771 -40 -21 -77
-45 -84 -53 -9 -12 -12 -91 -13 -293 l0 -278 -120 0 -120 0 0 135 c0 131 -1
137 -25 160 -32 33 -78 33 -110 0 -24 -23 -25 -29 -25 -160 l0 -135 -120 0
-120 0 0 135 c0 131 -1 137 -25 160 -32 33 -78 33 -110 0 -24 -23 -25 -29 -25
-160 l0 -135 -120 0 -120 0 0 135 c0 131 -1 137 -25 160 -32 33 -78 33 -110 0
-24 -23 -25 -29 -25 -160 l0 -135 -120 0 -120 0 0 263 c0 300 1 295 -83 322
-179 59 -312 191 -373 375 -26 76 -26 244 0 320 79 235 267 382 506 396 130 8
124 5 171 95 82 157 232 268 409 303 60 11 206 -3 271 -26z m1964 -795 c-10
-16 -29 -44 -42 -63 -13 -20 -23 -50 -23 -70 0 -20 10 -50 23 -70 13 -19 32
-47 42 -62 l17 -28 -201 0 -201 0 0 160 0 160 201 0 201 0 -17 -27z m-1425
-1493 l0 -80 -720 0 -720 0 0 80 0 80 720 0 720 0 0 -80z m560 -1120 l0 -80
-975 0 -976 0 -24 -25 c-33 -32 -33 -78 0 -110 l24 -25 976 0 975 0 0 -80 0
-80 -1576 0 c-1209 0 -1586 3 -1618 12 -55 16 -138 99 -154 154 -28 94 -8 169
63 239 27 28 66 56 85 62 25 8 494 11 1618 12 l1582 1 0 -80z"/>
<path d="M2365 2846 c-11 -8 -43 -34 -70 -60 -55 -51 -133 -95 -212 -121 -58
-18 -83 -45 -83 -88 0 -34 40 -77 73 -77 68 0 222 75 310 150 l59 50 118 0
118 0 59 -50 c88 -75 242 -150 310 -150 33 0 73 43 73 77 0 43 -25 70 -83 88
-82 27 -159 72 -215 125 -28 27 -60 54 -71 59 -31 17 -362 14 -386 -3z"/>
<path d="M665 615 c-16 -15 -25 -36 -25 -55 0 -19 9 -40 25 -55 l24 -25 271 0
271 0 24 25 c33 32 33 78 0 110 l-24 25 -271 0 -271 0 -24 -25z"/>
<path d="M1465 615 c-16 -15 -25 -36 -25 -55 0 -19 9 -40 25 -55 21 -22 33
-25 95 -25 62 0 74 3 95 25 16 15 25 36 25 55 0 19 -9 40 -25 55 -21 22 -33
25 -95 25 -62 0 -74 -3 -95 -25z"/>
</g>
</svg>
